PathFileType	4	(X/Y/Z)	D:\telocate\uwb03-Unnamed.trc
DataRate	CameraRate	NumFrames	NumMarkers	Units	OrigDataRate	OrigDataStartFrame	OrigNumFrames
100.00	100.00	      114	0	mm	100.00	1247	      9968
Frame#	Time	
		

1247	12.460	847.83606	317.21490	1190.70850	
1248	12.470	842.09229	314.33630	1192.37781	
1249	12.480	836.85388	310.95068	1193.12598	
1250	12.490	836.19373	309.20782	1195.08350	
1251	12.500	831.22333	306.15515	1196.41858	
1252	12.510	826.61646	303.36627	1197.04504	
1253	12.520	822.01306	300.52591	1198.30957	
1254	12.530	817.81561	297.85486	1199.15234	
1255	12.540	812.73444	294.74905	1200.13770	
1256	12.550	807.22626	291.36615	1200.94519	
1257	12.560	802.82526	288.85855	1201.45300	
1258	12.570	797.56708	285.43860	1202.09253	
1259	12.580	792.93298	282.10184	1202.05615	
1260	12.590	787.48541	278.72736	1202.34827	
1261	12.600	782.29321	275.41455	1202.40271	
1262	12.610	777.15375	271.66574	1202.24170	
1263	12.620	772.40271	268.21350	1202.26941	
1264	12.630	767.29578	264.60001	1202.21643	
1265	12.640	762.25952	260.93600	1202.11328	
1266	12.650	756.82910	256.92767	1202.21924	
1267	12.660	751.74402	253.21675	1202.79761	
1268	12.670	746.49127	249.55321	1202.41809	
1269	12.680	740.78857	245.82324	1203.08264	
1270	12.690	735.43005	241.74564	1203.56995	
1271	12.700	729.69824	237.68771	1204.06494	
1272	12.710	723.62067	233.47737	1204.61157	
1273	12.720	718.12640	229.14445	1204.63721	
1274	12.730	711.74994	224.94151	1205.31482	
1275	12.740	705.35425	220.36450	1205.81726	
1276	12.750	699.91156	216.73076	1206.12769	
1277	12.760	693.32623	212.56937	1206.63708	
1278	12.770	686.07190	208.31197	1207.01428	
1279	12.780	678.39703	204.28549	1207.30383	
1280	12.790	670.72791	200.06667	1206.87573	
1281	12.800	662.90503	196.33427	1207.69934	
1282	12.810	660.41272	192.90251	1208.45239	
1283	12.820	652.47943	188.65582	1208.17517	
1284	12.830	643.23834	184.14844	1208.31030	
1285	12.840	636.20667	180.45456	1208.87732	
1286	12.850	633.25616	176.89233	1209.11621	
1287	12.860	626.65918	172.90364	1208.88489	
1288	12.870	618.75891	169.00615	1208.62903	
1289	12.880	611.64069	165.38878	1208.78479	
1290	12.890	604.65863	161.05219	1209.01196	
1291	12.900	601.74573	158.53937	1209.64502	
1292	12.910	596.67169	155.18861	1209.35706	
1293	12.920	590.43176	151.72662	1209.33618	
1294	12.930	583.95105	148.64790	1209.52539	
1295	12.940	577.96680	145.44914	1209.90247	
1296	12.950	571.85968	142.07475	1210.29114	
1297	12.960	565.27972	139.16571	1210.51465	
1298	12.970	559.19409	136.00803	1210.76379	
1299	12.980	551.02020	132.13432	1210.75586	
1300	12.990	546.48199	129.73637	1210.91040	
1301	13.000	540.34808	126.87988	1211.25879	
1302	13.010	532.86823	123.20468	1211.15784	
1303	13.020	526.41266	120.47524	1211.51782	
1304	13.030	520.10553	117.22754	1210.95776	
1305	13.040	516.38641	114.88557	1210.26941	
1306	13.050	509.59244	112.14919	1210.70459	
1307	13.060	502.26355	108.85452	1210.28162	
1308	13.070	495.84531	106.35629	1210.27502	
1309	13.080	492.21942	104.26733	1209.36731	
1310	13.090	486.73199	101.91186	1208.74573	
1311	13.100	479.40594	99.19315	1208.59290	
1312	13.110	473.21921	96.69122	1208.40283	
1313	13.120	467.79767	94.29033	1208.12805	
1314	13.130	463.21277	92.02093	1207.31360	
1315	13.140	457.22205	89.61687	1207.37695	
1316	13.150	450.40433	87.18179	1207.24805	
1317	13.160	444.20255	85.19688	1206.88696	
1318	13.170	440.76654	82.81113	1206.61902	
1319	13.180	434.06406	80.81958	1206.41345	
1320	13.190	429.10522	79.05619	1206.09998	
1321	13.200	423.71146	76.73519	1206.01074	
1322	13.210	417.96558	74.69343	1205.84302	
1323	13.220	414.28879	72.81395	1205.73010	
1324	13.230	409.11179	70.58388	1205.78564	
1325	13.240	401.62561	68.59341	1206.16846	
1326	13.250	396.58374	66.47495	1206.41174	
1327	13.260	392.11935	64.55420	1206.28137	
1328	13.270	387.06412	62.91006	1206.12158	
1329	13.280	380.43954	60.62264	1206.68738	
1330	13.290	375.48709	59.17614	1206.76941	
1331	13.300	369.19046	57.54165	1206.88708	
1332	13.310	364.41672	56.13060	1207.00549	
1333	13.320	360.57507	54.89718	1207.10913	
1334	13.330	355.14084	52.92949	1206.51245	
1335	13.340	348.29404	51.64986	1206.79565	
1336	13.350	343.33896	50.13029	1206.67676	
1337	13.360	339.79419	48.66881	1206.63013	
1338	13.370	334.21713	47.40840	1206.35889	
1339	13.380	328.29263	45.55257	1206.23315	
1340	13.390	324.05215	44.41459	1206.20105	
1341	13.400	318.20435	43.10432	1205.54419	
1342	13.410	313.53748	41.72849	1205.51636	
1343	13.420	310.43344	40.37650	1205.12659	
1344	13.430	305.80234	39.06449	1204.91772	
1345	13.440	301.43546	37.49475	1204.57251	
1346	13.450	295.96643	35.72607	1204.80786	
1347	13.460	291.70544	34.33883	1204.95728	
1348	13.470	289.00348	33.17463	1204.42139	
1349	13.480	285.00116	32.02571	1204.40405	
1350	13.490	281.21188	30.34898	1204.75549	
1351	13.500	276.35867	28.89711	1204.58252	
1352	13.510	273.09128	27.70790	1204.46606	
1353	13.520	269.36761	26.62715	1204.46875	
1354	13.530	265.93680	25.34146	1204.40552	
1355	13.540	262.58566	23.94652	1204.51526	
1356	13.550	259.81696	22.82541	1204.43823	
1357	13.560	257.09808	21.54507	1203.88269	
1358	13.570	254.92821	20.59404	1203.73547	
1359	13.580	251.85164	18.92107	1203.67078	
1360	13.590	249.54376	17.87985	1203.65955	
